<svg xmlns="http://www.w3.org/2000/svg" version="1" viewBox="0 0 460 460"><path d="M9 35.5c0 .3 2.8 5.7 6.3 12L21.5 59h16.8c9.2 0 16.7-.2 16.7-.4l-6.6-12L42 35H25.3c-9 0-16.4.2-16.4.5zm44 0c0 .4 3.3 6.8 7.4 14.3 4 7.5 11.2 21.5 16 31L85 98h35l-11.6-22.3-16.2-31.5-4.7-9.2H70.3c-9.5 0-17.3.3-17.3.6zm236.2 20.7l-16.7 31.5L267 98h35l10-20 10.3-20 39.6.2c44 .3 43 .2 47 7.6 3 6 3 13.2-1 23.5-3 7.7-10 19.7-12 19.7-1 0-3 2-6 4.6l-9 7.5c-5 4-18 10-20 10-1.8 0-14.7 24-14.7 27s13 2 24.7-2c36-12 68.5-43 76-74 3-9 3-13 1-20-3-11.4-10-18.3-23-23l-6-3H300l-11 21zm-273 51.2C17 108.7 189.6 422 194.8 431l2.5 4 6.4-12c3.5-6.7 6.4-12.5 6.4-13s-37-68-84-150.3C80 177.5 42 109.3 42 108c-.6-2-1.2-2-13.2-2-10 0-12.4.3-12 1.4zm35 6.6c47.5 86.5 161.5 290.6 162 290.2l32-62.2 74.6-145.5 15-29-30.6-.3c-16.8 0-31 0-31.3.5-1 1-77 148-78 150.7-1 1-1 1.5-2 1-3-3-56-101.3-72-132l-30-59.2L81 106H47l4.3 8z"/><path d="M124 175.2c19.2 38 35.5 69.3 36.2 69.3 2 0 10.5-12 12.8-18 2.2-6 3-20.8 1-22-.5-.3-1-1.3-1-2 0-1.4-28-56.7-44-87l-5-9-17.4-.3L89 106l35 69.2zm136.7-65l-6 11-3.5 6.8h35.2l5.3-10.5c2.8-5.8 5.2-10.7 5.2-11 0-.3-8-.5-17-.5h-17l-3 4.2zm37.8 6.8l-5.6 11h62l5-11 5-11h-62l-6 11zm-151.3 19l6.3 12.4 6 11.6H192c30 0 32.8-.2 34.2-1.8 1.6-1.8 12.8-21.6 12.8-22.6 0-.3-20.7-.6-46-.6-27.7 0-46 .4-45.8 1zm94 11l-6.3 12h17c12 0 17-.3 18-1.3l6-12 6-10.7h-35l-6.5 12zm42 0l-6.2 12h30.3c27.7 0 30.5-.2 32-1.8 1.4-1.7 11.7-20.6 11.7-21.6 0-.3-13.8-.6-30.7-.6h-30.8l-6.3 12zm-75.7 63.5L184.2 255c-.2.6 5.8 1 16.6 1 14.8 0 17-.2 18.4-1.8.8-1 4.8-7.8 8.8-15.2 4-7.4 10-18.5 13.5-24.5 6.5-11.5 24.5-46 24.5-47 0-.3-8-.5-17.7-.5h-17.8l-23 43.5zM31 215.3c0 2.7 5 14.2 9.4 21 2.5 4 7 9.7 9.8 12.7 5 5 16 13 18 13 .5 0 2.8 1 5 2 4.3 2 22.8 4 22.8 2.5 0-.4-4-8-8.7-17-8.5-15.8-9-16.4-12.4-17-8-1.3-12-6-14-14.8V214H46c-11.7 0-15 .3-15 1.3z"/></svg>
