<?xml version="1.0" standalone="no"?> <!DOCTYPE svg PUBLIC "-//W3C//DTD SVG 20010904//EN" "http://www.w3.org/TR/2001/REC-SVG-20010904/DTD/svg10.dtd">
<svg version="1.0" xmlns="http://www.w3.org/2000/svg" width="256" height="256" viewBox="0 0 460 460" preserveAspectRatio="xMidYMid meet">
<g transform="translate(0,460) scale(0.1,-0.1)" fill="#000000" stroke="none"> <path d="M90 4245 c0 -3 28 -57 63 -120 l62 -115 168 0 c92 0 167 2 167 4 0 2 -30 56 -66 120 l-65 116 -165 0 c-90 0 -164 -2 -164 -5z"/> <path d="M530 4244 c0 -3 33 -67 74 -142 40 -75 112 -215 160 -309 l86 -173 175 0 175 0 -116 223 c-63 122 -136 264 -162 315 l-47 92 -172 0 c-95 0 -173 -3 -173 -6z"/> <path d="M2892 4038 c-62 -117 -137 -259 -167 -315 l-55 -103 175 0 174 0 102 201 102 200 396 -3 c444 -3 437 -2 479 -76 33 -59 30 -132 -10 -235 -30 -78 -101 -197 -118 -197 -4 0 -30 -20 -56 -46 -27 -25 -68 -58 -91 -75 -46 -32 -180 -99 -200 -99 -14 0 -143 -239 -143 -265 0 -28 132 -16 248 23 360 121 684 435 761 739 25 97 26 137 6 207 -33 114 -102 183 -230 231 l-65 25 -598 0 -598 0 -112 -212z"/> <path d="M163 3526 c5 -13 1732 -3145 1784 -3235 l25 -43 64 121 c35 67 64 125 64 130 0 5 -378 681 -839 1503 -461 823 -842 1505 -846 1517 -6 20 -12 21 -132 21 -101 0 -124 -3 -120 -14z"/> <path d="M512 3461 c475 -866 1615 -2907 1619 -2903 4 4 148 284 321 622 388 757 554 1081 746 1455 l149 290 -305 3 c-168 1 -309 -1 -313 -5 -8 -10 -763 -1480 -773 -1507 -4 -11 -10 -15 -15 -10 -28 31 -561 1013 -717 1320 -102 203 -238 469 -301 592 l-114 222 -170 0 -171 0 44 -79z"/> <path d="M1240 2848 c192 -381 355 -693 362 -693 20 0 105 121 128 181 22 59 29 207 10 219 -5 3 -10 13 -10 21 0 13 -281 566 -441 869 l-48 90 -175 3 -176 2 350 -692z"/> <path d="M2607 3498 c-14 -24 -40 -73 -60 -110 l-35 -68 177 0 176 0 53 105 c28 58 52 107 52 110 0 3 -76 5 -170 5 l-169 0 -24 -42z"/> <path d="M2985 3430 l-56 -110 311 0 310 0 55 110 55 110 -309 0 -309 0 -57 -110z"/> <path d="M1472 3241 c2 -5 30 -61 63 -125 l60 -116 326 0 c298 0 327 2 341 18 16 18 128 216 128 226 0 3 -207 6 -461 6 -276 0 -459 -4 -457 -9z"/> <path d="M2412 3130 l-63 -120 174 0 c128 0 177 3 184 13 6 6 36 60 67 120 l57 107 -178 0 -178 0 -63 -120z"/> <path d="M2832 3130 l-62 -120 303 0 c277 0 305 2 319 18 15 17 118 206 118 216 0 3 -138 6 -307 6 l-308 0 -63 -120z"/> <path d="M2075 2495 c-126 -239 -231 -440 -233 -445 -2 -6 58 -10 166 -10 148 0 171 2 184 18 8 9 48 78 88 152 40 74 101 185 135 245 65 115 245 460 245 469 0 4 -80 6 -177 6 l-178 0 -230 -435z"/> <path d="M310 2447 c0 -27 51 -142 94 -211 25 -40 69 -96 98 -126 50 -50 160 -130 180 -130 5 0 28 -9 51 -20 42 -21 227 -41 227 -25 0 4 -39 81 -87 170 -85 158 -89 164 -124 170 -78 13 -120 60 -134 148 l-6 37 -149 0 c-117 0 -150 -3 -150 -13z"/> </g>
</svg>
